<svg width="26" height="26" viewBox="0 0 26 26" fill="none" xmlns="http://www.w3.org/2000/svg">
<path d="M13 25.5C11.2708 25.5 9.64583 25.1719 8.125 24.5156C6.60417 23.8594 5.28125 22.9688 4.15625 21.8438C3.03125 20.7188 2.14062 19.3958 1.48438 17.875C0.828125 16.3542 0.5 14.7292 0.5 13C0.5 11.2708 0.828125 9.64583 1.48438 8.125C2.14062 6.60417 3.03125 5.28125 4.15625 4.15625C5.28125 3.03125 6.60417 2.14062 8.125 1.48438C9.64583 0.828125 11.2708 0.5 13 0.5C14.7292 0.5 16.3542 0.828125 17.875 1.48438C19.3958 2.14062 20.7188 3.03125 21.8438 4.15625C22.9688 5.28125 23.8594 6.60417 24.5156 8.125C25.1719 9.64583 25.5 11.2708 25.5 13C25.5 14.7292 25.1719 16.3542 24.5156 17.875C23.8594 19.3958 22.9688 20.7188 21.8438 21.8438C20.7188 22.9688 19.3958 23.8594 17.875 24.5156C16.3542 25.1719 14.7292 25.5 13 25.5ZM9.21875 23L11.1875 18.3125C10.3958 18.0417 9.69271 17.6094 9.07813 17.0156C8.46354 16.4219 8 15.6979 7.6875 14.8438L3 16.7188C3.64583 18.1979 4.5 19.4792 5.5625 20.5625C6.625 21.6458 7.84375 22.4583 9.21875 23ZM7.65625 11.1875C7.98958 10.3333 8.45833 9.60417 9.0625 9C9.66667 8.39583 10.3646 7.95833 11.1563 7.6875L9.28125 3C7.71875 3.64583 6.39583 4.51563 5.3125 5.60938C4.22917 6.70313 3.45833 7.9375 3 9.3125L7.65625 11.1875ZM13 16.75C14.0417 16.75 14.9271 16.3854 15.6563 15.6563C16.3854 14.9271 16.75 14.0417 16.75 13C16.75 11.9583 16.3854 11.0729 15.6563 10.3438C14.9271 9.61458 14.0417 9.25 13 9.25C11.9583 9.25 11.0729 9.61458 10.3438 10.3438C9.61458 11.0729 9.25 11.9583 9.25 13C9.25 14.0417 9.61458 14.9271 10.3438 15.6563C11.0729 16.3854 11.9583 16.75 13 16.75ZM16.7813 23C18.2188 22.4167 19.4688 21.5885 20.5313 20.5156C21.5938 19.4427 22.4167 18.1979 23 16.7813L18.3125 14.8438C18 15.7188 17.5365 16.4531 16.9219 17.0469C16.3073 17.6406 15.6042 18.0625 14.8125 18.3125L16.7813 23ZM18.3125 11.1563L23 9.21875C22.4167 7.80208 21.5885 6.55729 20.5156 5.48438C19.4427 4.41146 18.1979 3.58333 16.7813 3L14.875 7.6875C15.6667 7.95833 16.3542 8.39063 16.9375 8.98438C17.5208 9.57813 17.9792 10.3021 18.3125 11.1563Z" fill="#6C63FF"/>
</svg>
