<svg width="26" height="26" viewBox="0 0 26 26" fill="none" xmlns="http://www.w3.org/2000/svg">
<path d="M22 22.8125L22.875 21.9375L20.5312 19.5938V16.0938H19.2812V20.0938L22 22.8125ZM2.625 23.25C2.10417 23.25 1.66146 23.0677 1.29688 22.7031C0.932292 22.3385 0.75 21.8958 0.75 21.375V2.625C0.75 2.10417 0.932292 1.66146 1.29688 1.29688C1.66146 0.932292 2.10417 0.75 2.625 0.75H21.375C21.8958 0.75 22.3385 0.932292 22.7031 1.29688C23.0677 1.66146 23.25 2.10417 23.25 2.625V12.9062C22.9583 12.7396 22.651 12.6042 22.3281 12.5C22.0052 12.3958 21.6875 12.3125 21.375 12.25V2.625H2.625V21.375H12.2812C12.3646 21.7083 12.4583 22.0312 12.5625 22.3438C12.6667 22.6562 12.7917 22.9583 12.9375 23.25H2.625ZM2.625 19.9062V21.375V2.625V12.25V12.125V19.9062ZM5.75 18.25H12.3438C12.4271 17.9167 12.5208 17.5938 12.625 17.2812C12.7292 16.9688 12.8646 16.6667 13.0312 16.375H5.75V18.25ZM5.75 12.9375H16.5C16.7917 12.7917 17.0729 12.6719 17.3438 12.5781C17.6146 12.4844 17.9167 12.3958 18.25 12.3125V11.0625H5.75V12.9375ZM5.75 7.625H18.25V5.75H5.75V7.625ZM19.9062 25.7188C18.2813 25.7188 16.8958 25.1406 15.75 23.9844C14.6042 22.8281 14.0312 21.4583 14.0312 19.875C14.0312 18.25 14.6042 16.8594 15.75 15.7031C16.8958 14.5469 18.2813 13.9688 19.9062 13.9688C21.5104 13.9688 22.8906 14.5469 24.0469 15.7031C25.2031 16.8594 25.7812 18.25 25.7812 19.875C25.7812 21.4583 25.2031 22.8281 24.0469 23.9844C22.8906 25.1406 21.5104 25.7188 19.9062 25.7188Z" fill="#6C63FF"/>
</svg>
