<svg width="111" height="29" viewBox="0 0 111 29" fill="none" xmlns="http://www.w3.org/2000/svg">
<path d="M19.44 17.885C19.44 18.585 19.3933 19.215 19.3 19.775H5.125C5.24167 21.175 5.73167 22.2717 6.595 23.065C7.45833 23.8583 8.52 24.255 9.78 24.255C11.6 24.255 12.895 23.4733 13.665 21.91H18.95C18.39 23.7767 17.3167 25.3167 15.73 26.53C14.1433 27.72 12.195 28.315 9.885 28.315C8.01833 28.315 6.33833 27.9067 4.845 27.09C3.375 26.25 2.22 25.0717 1.38 23.555C0.563333 22.0383 0.155 20.2883 0.155 18.305C0.155 16.2983 0.563333 14.5367 1.38 13.02C2.19667 11.5033 3.34 10.3367 4.81 9.52C6.28 8.70333 7.97167 8.295 9.885 8.295C11.7283 8.295 13.3733 8.69167 14.82 9.485C16.29 10.2783 17.4217 11.41 18.215 12.88C19.0317 14.3267 19.44 15.995 19.44 17.885ZM14.365 16.485C14.3417 15.225 13.8867 14.2217 13 13.475C12.1133 12.705 11.0283 12.32 9.745 12.32C8.53167 12.32 7.505 12.6933 6.665 13.44C5.84833 14.1633 5.34667 15.1783 5.16 16.485H14.365ZM31.4516 28.245C29.7482 28.245 28.2082 27.9533 26.8316 27.37C25.4782 26.7867 24.4049 25.9467 23.6116 24.85C22.8182 23.7533 22.4099 22.4583 22.3866 20.965H27.6366C27.7066 21.9683 28.0566 22.7617 28.6866 23.345C29.3399 23.9283 30.2266 24.22 31.3466 24.22C32.4899 24.22 33.3882 23.9517 34.0416 23.415C34.6949 22.855 35.0216 22.1317 35.0216 21.245C35.0216 20.5217 34.7999 19.9267 34.3566 19.46C33.9132 18.9933 33.3532 18.6317 32.6766 18.375C32.0232 18.095 31.1132 17.7917 29.9466 17.465C28.3599 16.9983 27.0649 16.5433 26.0616 16.1C25.0816 15.6333 24.2299 14.945 23.5066 14.035C22.8066 13.1017 22.4566 11.865 22.4566 10.325C22.4566 8.87833 22.8182 7.61833 23.5416 6.545C24.2649 5.47167 25.2799 4.655 26.5866 4.095C27.8932 3.51167 29.3866 3.22 31.0666 3.22C33.5866 3.22 35.6282 3.83833 37.1916 5.075C38.7782 6.28833 39.6532 7.99167 39.8166 10.185H34.4266C34.3799 9.345 34.0182 8.65667 33.3416 8.12C32.6882 7.56 31.8132 7.28 30.7166 7.28C29.7599 7.28 28.9899 7.525 28.4066 8.015C27.8466 8.505 27.5666 9.21667 27.5666 10.15C27.5666 10.8033 27.7766 11.3517 28.1966 11.795C28.6399 12.215 29.1766 12.565 29.8066 12.845C30.4599 13.1017 31.3699 13.405 32.5366 13.755C34.1232 14.2217 35.4182 14.6883 36.4216 15.155C37.4249 15.6217 38.2882 16.3217 39.0116 17.255C39.7349 18.1883 40.0966 19.4133 40.0966 20.93C40.0966 22.2367 39.7582 23.45 39.0816 24.57C38.4049 25.69 37.4132 26.5883 36.1066 27.265C34.7999 27.9183 33.2482 28.245 31.4516 28.245ZM55.2647 8.33C56.7347 8.33 58.0414 8.65667 59.1847 9.31C60.328 9.94 61.2147 10.885 61.8447 12.145C62.498 13.3817 62.8247 14.875 62.8247 16.625V28H57.9247V17.29C57.9247 15.75 57.5397 14.5717 56.7697 13.755C55.9997 12.915 54.9497 12.495 53.6197 12.495C52.2664 12.495 51.193 12.915 50.3997 13.755C49.6297 14.5717 49.2447 15.75 49.2447 17.29V28H44.3447V2.1H49.2447V11.025C49.8747 10.185 50.7147 9.53167 51.7647 9.065C52.8147 8.575 53.9814 8.33 55.2647 8.33ZM85.7893 8.61V28H80.8543V25.55C80.2243 26.39 79.396 27.055 78.3693 27.545C77.366 28.0117 76.2693 28.245 75.0793 28.245C73.5627 28.245 72.221 27.93 71.0543 27.3C69.8877 26.6467 68.966 25.7017 68.2893 24.465C67.636 23.205 67.3093 21.7117 67.3093 19.985V8.61H72.2093V19.285C72.2093 20.825 72.5943 22.015 73.3643 22.855C74.1343 23.6717 75.1843 24.08 76.5143 24.08C77.8677 24.08 78.9293 23.6717 79.6993 22.855C80.4693 22.015 80.8543 20.825 80.8543 19.285V8.61H85.7893ZM95.524 11.62C96.154 10.5933 96.9707 9.78833 97.974 9.205C99.0007 8.62167 100.167 8.33 101.474 8.33V13.475H100.179C98.639 13.475 97.4723 13.8367 96.679 14.56C95.909 15.2833 95.524 16.5433 95.524 18.34V28H90.624V8.61H95.524V11.62ZM107.259 6.3C106.396 6.3 105.673 6.03167 105.089 5.495C104.529 4.935 104.249 4.24667 104.249 3.43C104.249 2.61333 104.529 1.93666 105.089 1.4C105.673 0.839999 106.396 0.559999 107.259 0.559999C108.123 0.559999 108.834 0.839999 109.394 1.4C109.978 1.93666 110.269 2.61333 110.269 3.43C110.269 4.24667 109.978 4.935 109.394 5.495C108.834 6.03167 108.123 6.3 107.259 6.3ZM109.674 8.61V28H104.774V8.61H109.674Z" fill="url(#paint0_linear_553_969)"/>
<defs>
<linearGradient id="paint0_linear_553_969" x1="19" y1="15.9206" x2="142.099" y2="51.9212" gradientUnits="userSpaceOnUse">
<stop stop-color="#9A35F7"/>
<stop offset="1" stop-color="#00D2FF"/>
</linearGradient>
</defs>
</svg>
