<svg width="30" height="16" viewBox="0 0 30 16" fill="none" xmlns="http://www.w3.org/2000/svg">
<path d="M0 15.5V13.8437C0 13.0312 0.432292 12.375 1.29688 11.875C2.16146 11.375 3.29167 11.125 4.6875 11.125C4.95833 11.125 5.20833 11.1302 5.4375 11.1406C5.66667 11.151 5.89583 11.1771 6.125 11.2188C5.95833 11.5729 5.83333 11.9375 5.75 12.3125C5.66667 12.6875 5.625 13.0729 5.625 13.4688V15.5H0ZM7.5 15.5V13.4688C7.5 12.8021 7.68229 12.1927 8.04688 11.6406C8.41146 11.0885 8.92708 10.6042 9.59375 10.1875C10.2604 9.77083 11.0573 9.45833 11.9844 9.25C12.9115 9.04167 13.9167 8.9375 15 8.9375C16.1042 8.9375 17.1198 9.04167 18.0469 9.25C18.974 9.45833 19.7708 9.77083 20.4375 10.1875C21.1042 10.6042 21.6146 11.0885 21.9688 11.6406C22.3229 12.1927 22.5 12.8021 22.5 13.4688V15.5H7.5ZM24.375 15.5V13.4688C24.375 13.0521 24.3385 12.6615 24.2656 12.2969C24.1927 11.9323 24.0729 11.5729 23.9062 11.2188C24.1354 11.1771 24.3646 11.151 24.5938 11.1406C24.8229 11.1302 25.0625 11.125 25.3125 11.125C26.7292 11.125 27.8646 11.375 28.7188 11.875C29.5729 12.375 30 13.0312 30 13.8437V15.5H24.375ZM9.375 13.625H20.625V13.4375C20.625 12.6667 20.099 12.0365 19.0469 11.5469C17.9948 11.0573 16.6458 10.8125 15 10.8125C13.3542 10.8125 12.0052 11.0573 10.9531 11.5469C9.90104 12.0365 9.375 12.6771 9.375 13.4688V13.625ZM4.6875 10.1875C4.08333 10.1875 3.56771 9.97396 3.14062 9.54688C2.71354 9.11979 2.5 8.60417 2.5 8C2.5 7.39583 2.71354 6.88021 3.14062 6.45312C3.56771 6.02604 4.08333 5.8125 4.6875 5.8125C5.29167 5.8125 5.80729 6.02604 6.23438 6.45312C6.66146 6.88021 6.875 7.39583 6.875 8C6.875 8.60417 6.66146 9.11979 6.23438 9.54688C5.80729 9.97396 5.29167 10.1875 4.6875 10.1875ZM25.3125 10.1875C24.7083 10.1875 24.1927 9.97396 23.7656 9.54688C23.3385 9.11979 23.125 8.60417 23.125 8C23.125 7.39583 23.3385 6.88021 23.7656 6.45312C24.1927 6.02604 24.7083 5.8125 25.3125 5.8125C25.9167 5.8125 26.4323 6.02604 26.8594 6.45312C27.2865 6.88021 27.5 7.39583 27.5 8C27.5 8.60417 27.2865 9.11979 26.8594 9.54688C26.4323 9.97396 25.9167 10.1875 25.3125 10.1875ZM15 8C13.9583 8 13.0729 7.63542 12.3438 6.90625C11.6146 6.17708 11.25 5.29167 11.25 4.25C11.25 3.1875 11.6146 2.29688 12.3438 1.57813C13.0729 0.859375 13.9583 0.5 15 0.5C16.0625 0.5 16.9531 0.859375 17.6719 1.57813C18.3906 2.29688 18.75 3.1875 18.75 4.25C18.75 5.29167 18.3906 6.17708 17.6719 6.90625C16.9531 7.63542 16.0625 8 15 8ZM15 6.125C15.5417 6.125 15.9896 5.94271 16.3438 5.57812C16.6979 5.21354 16.875 4.77083 16.875 4.25C16.875 3.70833 16.6979 3.26042 16.3438 2.90625C15.9896 2.55208 15.5417 2.375 15 2.375C14.4792 2.375 14.0365 2.55208 13.6719 2.90625C13.3073 3.26042 13.125 3.70833 13.125 4.25C13.125 4.77083 13.3073 5.21354 13.6719 5.57812C14.0365 5.94271 14.4792 6.125 15 6.125Z" fill="#6C63FF"/>
</svg>
