<svg width="26" height="22" viewBox="0 0 26 22" fill="none" xmlns="http://www.w3.org/2000/svg">
<path d="M10.5 9.84375C9.125 9.84375 8 9.40625 7.125 8.53125C6.25 7.65625 5.8125 6.53125 5.8125 5.15625C5.8125 3.78125 6.25 2.65625 7.125 1.78125C8 0.90625 9.125 0.46875 10.5 0.46875C11.875 0.46875 13 0.90625 13.875 1.78125C14.75 2.65625 15.1875 3.78125 15.1875 5.15625C15.1875 6.53125 14.75 7.65625 13.875 8.53125C13 9.40625 11.875 9.84375 10.5 9.84375ZM0.5 19.875V16.9375C0.5 16.2083 0.682292 15.5521 1.04688 14.9688C1.41146 14.3854 1.9375 13.9375 2.625 13.625C4.125 12.9583 5.51562 12.4792 6.79688 12.1875C8.07812 11.8958 9.3125 11.75 10.5 11.75H11.2188C11.0938 12.0417 11 12.3281 10.9375 12.6094C10.875 12.8906 10.8229 13.2292 10.7812 13.625H10.5C9.29167 13.625 8.10938 13.7552 6.95312 14.0156C5.79688 14.276 4.60417 14.7083 3.375 15.3125C3.04167 15.4792 2.79167 15.7135 2.625 16.0156C2.45833 16.3177 2.375 16.625 2.375 16.9375V18H10.7812C10.8854 18.375 11.0104 18.7135 11.1562 19.0156C11.3021 19.3177 11.4792 19.6042 11.6875 19.875H0.5ZM18.8438 21.25L18.5312 19.1875C18.1771 19.0833 17.8177 18.9323 17.4531 18.7344C17.0885 18.5365 16.7812 18.3125 16.5312 18.0625L14.8125 18.4375L14.0312 17.125L15.5 15.75C15.4583 15.5625 15.4375 15.3021 15.4375 14.9688C15.4375 14.6354 15.4583 14.375 15.5 14.1875L14.0312 12.8125L14.8125 11.5L16.5312 11.875C16.7812 11.625 17.0885 11.401 17.4531 11.2031C17.8177 11.0052 18.1771 10.8542 18.5312 10.75L18.8438 8.6875H20.5312L20.8438 10.75C21.1979 10.8542 21.5573 11.0052 21.9219 11.2031C22.2865 11.401 22.5938 11.625 22.8438 11.875L24.5625 11.5L25.3438 12.8125L23.875 14.1875C23.9167 14.375 23.9375 14.6354 23.9375 14.9688C23.9375 15.3021 23.9167 15.5625 23.875 15.75L25.3438 17.125L24.5625 18.4375L22.8438 18.0625C22.5938 18.3125 22.2865 18.5365 21.9219 18.7344C21.5573 18.9323 21.1979 19.0833 20.8438 19.1875L20.5312 21.25H18.8438ZM19.6875 17.4688C20.4375 17.4688 21.0417 17.2396 21.5 16.7812C21.9583 16.3229 22.1875 15.7188 22.1875 14.9688C22.1875 14.2188 21.9583 13.6146 21.5 13.1562C21.0417 12.6979 20.4375 12.4688 19.6875 12.4688C18.9375 12.4688 18.3333 12.6979 17.875 13.1562C17.4167 13.6146 17.1875 14.2188 17.1875 14.9688C17.1875 15.7188 17.4167 16.3229 17.875 16.7812C18.3333 17.2396 18.9375 17.4688 19.6875 17.4688ZM10.5 7.96875C11.3125 7.96875 11.9844 7.70313 12.5156 7.17188C13.0469 6.64062 13.3125 5.96875 13.3125 5.15625C13.3125 4.34375 13.0469 3.67187 12.5156 3.14062C11.9844 2.60937 11.3125 2.34375 10.5 2.34375C9.6875 2.34375 9.01562 2.60937 8.48438 3.14062C7.95312 3.67187 7.6875 4.34375 7.6875 5.15625C7.6875 5.96875 7.95312 6.64062 8.48438 7.17188C9.01562 7.70313 9.6875 7.96875 10.5 7.96875Z" fill="#6C63FF"/>
</svg>
