<svg width="25" height="24" viewBox="0 0 25 24" fill="none" xmlns="http://www.w3.org/2000/svg">
<path d="M17.375 14C17.8958 14 18.3594 13.7969 18.7656 13.3906C19.1719 12.9844 19.375 12.5156 19.375 11.9844C19.375 11.4531 19.1719 10.9896 18.7656 10.5938C18.3594 10.1979 17.8958 10 17.375 10C16.8542 10 16.3906 10.1979 15.9844 10.5938C15.5781 10.9896 15.375 11.4531 15.375 11.9844C15.375 12.5156 15.5781 12.9844 15.9844 13.3906C16.3906 13.7969 16.8542 14 17.375 14ZM2.625 19.7188V21.375V2.625V19.7188ZM2.625 23.25C2.14583 23.25 1.71354 23.0625 1.32813 22.6875C0.942708 22.3125 0.75 21.875 0.75 21.375V2.625C0.75 2.14583 0.942708 1.71354 1.32813 1.32812C1.71354 0.942708 2.14583 0.75 2.625 0.75H21.375C21.875 0.75 22.3125 0.942708 22.6875 1.32812C23.0625 1.71354 23.25 2.14583 23.25 2.625V6.8125H21.375V2.625H2.625V21.375H21.375V17.2188H23.25V21.375C23.25 21.875 23.0625 22.3125 22.6875 22.6875C22.3125 23.0625 21.875 23.25 21.375 23.25H2.625ZM13.8125 17.8438C13.1042 17.8438 12.5417 17.6354 12.125 17.2188C11.7083 16.8021 11.5 16.25 11.5 15.5625V8.46875C11.5 7.76042 11.7083 7.20312 12.125 6.79688C12.5417 6.39062 13.1042 6.1875 13.8125 6.1875H22.25C22.9583 6.1875 23.5208 6.39062 23.9375 6.79688C24.3542 7.20312 24.5625 7.76042 24.5625 8.46875V15.5625C24.5625 16.25 24.3542 16.8021 23.9375 17.2188C23.5208 17.6354 22.9583 17.8438 22.25 17.8438H13.8125ZM22.6875 15.9688V8.0625H13.375V15.9688H22.6875Z" fill="#6C63FF"/>
</svg>
